<svg xmlns="http://www.w3.org/2000/svg" xmlns:xlink="http://www.w3.org/1999/xlink" width="205" height="60" viewBox="0 0 205 60"><defs><radialGradient id="a" cx="-1.359" cy="3.391" r="4.212" gradientUnits="objectBoundingBox"><stop offset="0" stop-color="#c5f1ff"/><stop offset="0.35" stop-color="#cdf3ff"/><stop offset="0.907" stop-color="#e4faff"/><stop offset="1" stop-color="#e9fbff"/></radialGradient><radialGradient id="b" cx="0.5" cy="0.5" r="0.492" gradientTransform="translate(-0.016) scale(1.032 1)" xlink:href="#a"/><linearGradient id="c" x1="0.5" y1="0.744" x2="0.5" y2="-0.256" gradientUnits="objectBoundingBox"><stop offset="0" stop-color="#ff8b67"/><stop offset="0.847" stop-color="#ffa76a"/><stop offset="1" stop-color="#ffad6b"/></linearGradient><linearGradient id="d" x1="0.5" y1="1" x2="0.5" gradientUnits="objectBoundingBox"><stop offset="0" stop-color="#ffc050"/><stop offset="0.004" stop-color="#ffc050"/><stop offset="0.641" stop-color="#ffbe75"/><stop offset="1" stop-color="#ffbd85"/></linearGradient><linearGradient id="e" x1="0.5" y1="1" x2="0.5" gradientUnits="objectBoundingBox"><stop offset="0" stop-color="#ffc96a"/><stop offset="0.004" stop-color="#ffc96a"/><stop offset="0.578" stop-color="#ffc887"/><stop offset="1" stop-color="#ffc797"/></linearGradient><clipPath id="h"><rect width="205" height="60"/></clipPath></defs><g id="g" clip-path="url(#h)"><g transform="translate(9 7)"><path d="M43.81,5.62h0a2.81,2.81,0,0,0,2.81-2.81h0A2.81,2.81,0,0,0,43.81,0h0A2.81,2.81,0,0,0,41,2.81h0A2.81,2.81,0,0,0,43.81,5.62Z" transform="translate(-12.195)" fill="url(#a)"/><path d="M43.558,33.371h0A3.162,3.162,0,0,0,40.4,30.21H22.482A1.4,1.4,0,0,1,21.077,28.8V15.456a1.4,1.4,0,0,1,1.405-1.405h7.026a2.81,2.81,0,0,0,2.81-2.81h0a2.81,2.81,0,0,0-2.81-2.81H22.482a1.4,1.4,0,0,1-1.405-1.405h0A1.4,1.4,0,0,1,22.482,5.62h.7a2.81,2.81,0,0,0,2.81-2.81h0A2.81,2.81,0,0,0,23.184,0H5.972A3.864,3.864,0,0,0,2.108,3.864h0A3.864,3.864,0,0,0,5.972,7.728H8.079a3.864,3.864,0,0,1,3.864,3.864h0a3.864,3.864,0,0,1-3.864,3.864H3.864A3.864,3.864,0,0,0,0,19.32H0a3.864,3.864,0,0,0,3.864,3.864H9.836a2.108,2.108,0,0,1,2.108,2.108h0A2.108,2.108,0,0,1,9.836,27.4H4.567a3.162,3.162,0,0,0-3.162,3.162h0a3.162,3.162,0,0,0,3.162,3.162H9.836a2.81,2.81,0,0,1,2.81,2.81h0a2.81,2.81,0,0,1-2.81,2.81h-.7a2.81,2.81,0,0,0-2.81,2.81h0a2.81,2.81,0,0,0,2.81,2.81h28.1a2.81,2.81,0,0,0,2.81-2.81h0a2.81,2.81,0,0,0-2.81-2.81H35.128a1.4,1.4,0,0,1-1.405-1.405h0a1.4,1.4,0,0,1,1.405-1.405H40.4A3.162,3.162,0,0,0,43.558,33.371Z" fill="url(#b)"/><path d="M20.646,11.81h0A2.81,2.81,0,0,0,17.836,9H10.81A2.81,2.81,0,0,0,8,11.81V35.7a3.513,3.513,0,0,0,3.513,3.513h26.7A3.513,3.513,0,0,0,41.723,35.7V17.431a3.513,3.513,0,0,0-3.513-3.513H22.754A2.108,2.108,0,0,1,20.646,11.81Z" transform="translate(-2.38 -2.677)" fill="url(#c)"/><path d="M11.513,16h26.7a3.513,3.513,0,0,1,3.513,3.513V37.779a3.513,3.513,0,0,1-3.513,3.513h-26.7A3.513,3.513,0,0,1,8,37.779V19.513A3.513,3.513,0,0,1,11.513,16Z" transform="translate(-2.38 -4.759)" fill="url(#d)"/><path d="M34.7,18.459h0A2.459,2.459,0,0,0,32.238,16H11.513A3.513,3.513,0,0,0,8,19.513V37.779a3.513,3.513,0,0,0,3.513,3.513h8.782a2.459,2.459,0,0,0,2.459-2.459h0a2.459,2.459,0,0,0-2.459-2.459h-2.81a2.459,2.459,0,0,1-2.459-2.459h0a2.459,2.459,0,0,1,2.459-2.459H23.1A2.459,2.459,0,0,0,25.564,29h0A2.459,2.459,0,0,0,23.1,26.538H19.943a2.81,2.81,0,0,1-2.81-2.81h0a2.81,2.81,0,0,1,2.81-2.81H32.238A2.459,2.459,0,0,0,34.7,18.459Z" transform="translate(-2.38 -4.759)" fill="url(#e)"/><path d="M41.459,35.918h0a2.459,2.459,0,0,0,2.459-2.459h0A2.459,2.459,0,0,0,41.459,31h0A2.459,2.459,0,0,0,39,33.459h0A2.459,2.459,0,0,0,41.459,35.918Z" transform="translate(-11.6 -9.221)" fill="url(#e)"/></g><text transform="translate(60 42)" fill="#fff" font-size="31" font-family="Montserrat-Bold, Montserrat" font-weight="700" letter-spacing="-0.03em"><tspan x="0" y="0">Folder</tspan></text><text transform="translate(163 42)" fill="#fff" font-size="13" font-family="Montserrat-Light, Montserrat" font-weight="300"><tspan x="0" y="0">beta</tspan></text></g></svg>